<svg width="1200" height="630" viewBox="0 0 1200 630" xmlns="http://www.w3.org/2000/svg">
  <defs>
    <linearGradient id="bg" x1="0" y1="0" x2="1" y2="1">
      <stop offset="0%" stop-color="#f8f9ff" />
      <stop offset="100%" stop-color="#dce9ff" />
    </linearGradient>
    <linearGradient id="brand" x1="0" y1="0" x2="1" y2="1">
      <stop offset="0%" stop-color="#4F46E5" />
      <stop offset="100%" stop-color="#7C3AED" />
    </linearGradient>
  </defs>
  <rect width="1200" height="630" rx="32" fill="url(#bg)"/>
  <g transform="translate(140 170)">
    <rect x="0" y="0" width="84" height="84" rx="14" fill="white" stroke="#e2e8f0"/>
    <svg x="16" y="16" width="52" height="52" viewBox="0 0 24 24" fill="none" stroke="url(#brand)" stroke-width="2" stroke-linecap="round" stroke-linejoin="round">
      <rect x="3" y="4" width="18" height="18" rx="2" ry="2"></rect>
      <line x1="16" y1="2" x2="16" y2="6"></line>
      <line x1="8" y1="2" x2="8" y2="6"></line>
      <line x1="3" y1="10" x2="21" y2="10"></line>
      <path d="M8 14h.01"></path>
      <path d="M12 14h.01"></path>
      <path d="M16 14h.01"></path>
      <path d="M8 18h.01"></path>
      <path d="M12 18h.01"></path>
      <path d="M16 18h.01"></path>
    </svg>

    <text x="110" y="58" font-family="Plus Jakarta Sans, sans-serif" font-size="62" font-weight="700" fill="#0b1c30">Age Calculator Pro</text>
    <text x="110" y="104" font-family="Plus Jakarta Sans, sans-serif" font-size="30" fill="#4b5b73">Calculate your exact age with precision</text>
  </g>
</svg>
